<svg width="700" height="700" viewBox="0 0 700 700" fill="none" xmlns="http://www.w3.org/2000/svg">
<rect x="90" y="177.142" width="450" height="430" rx="40" transform="rotate(-10 90 177.142)" fill="#6B46C1"/>
<path d="M333.375 354.869L349.879 448.465C342.671 454.025 332.871 459.262 320.48 464.177C308.056 468.902 295.226 472.431 281.99 474.765C261.948 478.299 243.93 477.285 227.937 471.721C211.91 465.969 198.654 456.024 188.168 441.886C177.87 427.715 170.821 409.851 167.021 388.296C163.253 366.929 163.801 347.922 168.663 331.272C173.682 314.401 182.565 300.649 195.313 290.018C208.216 279.164 224.405 272.021 243.881 268.587C258.062 266.086 271.398 265.977 283.888 268.258C296.533 270.318 307.861 274.852 317.87 281.86L311.945 301.329C300.645 294.743 289.952 290.487 279.864 288.562C269.932 286.414 259.105 286.373 247.382 288.44C224.503 292.474 208.185 302.76 198.428 319.298C188.827 335.613 186.394 357.195 191.129 384.045C195.963 411.462 205.887 431.255 220.9 443.425C235.88 455.406 255.282 459.296 279.107 455.095C295.935 452.128 311.635 446.63 326.206 438.602L315.354 377.055L265.153 385.907L261.902 367.472L333.375 354.869Z" fill="white"/>
<path d="M495.985 327.659C508.086 328.839 518.101 333.117 526.03 340.492C533.926 347.678 538.974 357.511 541.174 369.991C544.275 387.575 540.814 402.223 530.791 413.933C520.735 425.455 505.024 433.099 483.657 436.866L399.704 451.67L364.097 249.729L445.214 235.426C465.824 231.792 482.618 233.607 495.597 240.872C508.731 247.914 516.782 259.849 519.749 276.677C521.65 287.455 520.464 297.315 516.192 306.257C512.075 314.976 505.34 322.11 495.985 327.659ZM402.874 335.303L457.33 325.701C472.456 323.034 483.363 317.992 490.048 310.574C496.734 303.156 499.043 293.586 496.976 281.863C492.908 258.795 475.559 249.961 444.927 255.362L390.471 264.964L402.874 335.303ZM478.271 417.93C494.154 415.129 505.266 410.148 511.607 402.986C518.103 395.602 520.268 385.765 518.101 373.474C513.733 348.704 496.139 339.037 465.319 344.471L406.325 354.873L419.277 428.332L478.271 417.93Z" fill="white"/>
</svg>
